# xmcd
#
# Track frame offsets: 
#        150
#        6718
#        18814
#        36273
#        58714
#        74254
#        89646
#        98221
#        111407
#        124599
#        137907
#        139031
#        152066
#        165280
#        189150
#        213791
#        237652
#        260497
#        283233
#        306172
#        327222
#        347145
#
# Disc length: 4755 seconds
#
# Revision: 0
# Processed by: cddbd v1.5.2PL0 Copyright (c) Steve Scherf et al.
# Submitted via: ExactAudioCopy v1.0b1
#
DISCID=46129116
DTITLE=George Harrison  - Art Of Dying - Disc 5
DYEAR=1900
DGENRE=
TTITLE0=Nowhere To Go
TTITLE1=Nowhere To Go
TTITLE2=Pete Drake's Talking Steel Guitar
TTITLE3=Pete Drake's Talking Steel Guitar
TTITLE4=Plug Me In
TTITLE5=Plug Me In
TTITLE6=Run Of The Mill
TTITLE7=Run Of The Mill
TTITLE8=Run Of The Mill
TTITLE9=Run Of The Mill
TTITLE10=Run Of The Mill
TTITLE11=Run Of The Mill
TTITLE12=Tell Me What Has Happened To You
TTITLE13=Wah Wah
TTITLE14=Wah Wah
TTITLE15=Wah Wah
TTITLE16=What Is Life
TTITLE17=What Is Life
TTITLE18=What Is Life
TTITLE19=What Is Life
TTITLE20=What Is Life
TTITLE21=Window, Window
EXTD=
EXTT0=
EXTT1=
EXTT2=
EXTT3=
EXTT4=
EXTT5=
EXTT6=
EXTT7=
EXTT8=
EXTT9=
EXTT10=
EXTT11=
EXTT12=
EXTT13=
EXTT14=
EXTT15=
EXTT16=
EXTT17=
EXTT18=
EXTT19=
EXTT20=
EXTT21=
PLAYORDER=
